<?xml version="1.0" encoding="UTF-8" standalone="no"?>
<svg width="111px" height="152px" viewBox="0 0 111 152" version="1.1" xmlns="http://www.w3.org/2000/svg" xmlns:xlink="http://www.w3.org/1999/xlink">
    <!-- Generator: sketchtool 39.1 (31720) - http://www.bohemiancoding.com/sketch -->
    <title>BC2203BE-052A-487D-866F-8FDBEBCEB359</title>
    <desc>Created with sketchtool.</desc>
    <defs>
        <filter x="-50%" y="-50%" width="200%" height="200%" filterUnits="objectBoundingBox" id="filter-1">
            <feOffset dx="0" dy="5" in="SourceAlpha" result="shadowOffsetOuter1"></feOffset>
            <feGaussianBlur stdDeviation="3" in="shadowOffsetOuter1" result="shadowBlurOuter1"></feGaussianBlur>
            <feColorMatrix values="0 0 0 0 0   0 0 0 0 0   0 0 0 0 0  0 0 0 0.5 0" type="matrix" in="shadowBlurOuter1" result="shadowMatrixOuter1"></feColorMatrix>
            <feMerge>
                <feMergeNode in="shadowMatrixOuter1"></feMergeNode>
                <feMergeNode in="SourceGraphic"></feMergeNode>
            </feMerge>
        </filter>
    </defs>
    <g id="Page-1" stroke="none" stroke-width="1" fill="none" fill-rule="evenodd">
        <g id="gym" transform="translate(-41.000000, -25.000000)">
            <g id="gym_icon" transform="translate(47.000000, 26.000000)">
                <g id="ic_place_black_24px" filter="url(#filter-1)" fill="#BABABA">
                    <g id="Group">
                        <path d="M49.1431548,0 C21.9921101,0 0.0327380952,22.0151348 0.0327380952,49.2351257 C0.0327380952,86.16147 49.1431548,140.671788 49.1431548,140.671788 C49.1431548,140.671788 98.2535714,86.16147 98.2535714,49.2351257 C98.2535714,22.0151348 76.2941994,0 49.1431548,0 L49.1431548,0 Z" id="Shape"></path>
                    </g>
                </g>
                <path d="M60.3197108,62.8512234 C59.5960054,60.6233326 49.5087054,61.8812037 49.1022766,60.8139192 C48.7902442,59.3628328 48.3457946,51.2806498 48.4270804,50.6983751 C48.4152808,50.2146796 48.7994216,49.905798 49.090477,49.7138971 C59.3901689,49.5127955 65.3161626,49.3116938 72.6122147,49.1644822 C85.346546,49.4115874 78.9997018,68.5372738 74.2811948,76.4209839 C68.4613969,82.1950984 60.7759599,87.1122308 49.1796292,85.5757091 C36.5947587,82.9889899 26.470749,77.4317497 21.4126774,67.1913386 C11.2794902,50.8179846 21.2160183,25.7670289 35.9575833,18.3722717 C38.0670798,17.1656619 47.0806212,15.3373456 47.5512919,14.8378775 C61.7540111,15.0600094 76.7826984,17.9963563 78.9144829,33.0579492 C77.5470467,37.8567865 75.6512531,40.5328842 70.9799443,40.2266314 C64.3656437,39.8704317 62.8500577,36.9669446 59.8005308,34.9861591 C48.3077739,28.9636249 38.4131998,35.387048 35.819922,42.164042 C34.0434349,50.967825 36.7822404,62.1204227 44.4244125,65.1027732 C48.6447164,67.2623156 59.3010167,70.7651645 60.3197108,62.8512234 L60.3197108,62.8512234 Z" id="Shape" fill="#FFFFFF"></path>
            </g>
        </g>
    </g>
</svg>