<svg xmlns="http://www.w3.org/2000/svg" width="1466" height="1466" viewBox="0 0 1466 1466">
  <g fill="none" fill-rule="evenodd" transform="translate(264 65)">
    <path fill="#F5F5F5" d="M80,225 C242.666667,142.333333 388.666667,101 518,101 C341,242 793,91.6666667 793,407 C793,557.116158 839.57222,711.702567 793,934 C761.951853,1082.19829 716.285187,1187.53162 656,1250 L187,1172 L80,225 Z"/>
    <path fill="#3DF8CD" d="M497.819803,436.697046 L374.082797,490.463717 C364.677235,514.87232 364.784017,549.135845 380.690792,590.320097 C387.082869,606.869831 394.628897,618.160732 401.040404,631 L562.040404,480 C575.846395,439.825653 583.846395,408.158987 586.040404,385 C588.234413,361.841013 583.234413,331.174347 571.040404,293 L519.040404,317 C521.961819,340.995903 521.961819,360.66257 519.040404,376 C516.331966,390.219298 509.258433,410.451647 497.819803,436.697046 L497.819803,436.697046 Z M46,198 L215,75 L508,0 L702,142 L939,596 L896,771 L850,1187 L541,1337 L239,1316 C199.666667,1254.66667 167.333333,1201.66667 142,1157 C116.666667,1112.33333 69.3333333,937 0,631 L46,198 Z M146.040404,293 C134.157216,356.575056 148.486164,452.716705 189.027247,581.424947 C208.934962,551.820246 237.756381,511.738063 265.048892,479.263323 L265.048882,479.263334 L238.040404,323 L359.040404,231 L345.040404,185 C310.344213,195.88139 280.01088,208.214724 254.040404,222 C228.069928,235.785276 192.069928,259.451943 146.040404,293 L146.040404,293 Z M271.270089,485.144897 C243.217418,519.267117 213.081876,562.515395 195.291339,600.933662 C195.410716,601.298674 195.530293,601.663934 195.650071,602.029444 C179.915116,664.482733 177.425057,741.469946 182.707721,817.409884 C210.814269,831.608398 255.016822,826.680042 303.040404,789 C341.500223,758.823834 365.534384,732.633332 380.288407,710.770525 L380.07276,710.855673 C384.812849,688.137362 389.936454,664.356259 395.443575,639.512363 C385.227021,623.256847 376.942039,607.269388 372.242429,594.011323 C360.690588,561.422443 356.470497,524.035205 362.22305,495.617065 L360.37455,496.420282 C316.503182,489.664346 286.801695,485.905884 271.270089,485.144897 Z M449.040404,176 L436.040404,146 L400.040404,142 L369.040404,153 L353.040404,183 L372.040404,225 L436.040404,197 L449.040404,176 Z M385.963875,717.714421 C365.765944,750.962122 335.531155,786.606346 312.040404,804 C271.830927,833.772983 217.52462,851.802286 186.674198,838.239448 C191.335907,895.753727 200.298089,952.158589 211.167678,1000.64014 L339.175652,1012.66437 C339.599812,983.763136 343.234534,945.964838 350.079817,899.269475 C391.266451,864.355771 422.586646,839.932613 444.040404,826 C446.149142,824.630532 448.297096,823.275044 450.484265,821.933537 L450.040404,818.333333 L462.323215,687.572575 L385.963873,717.71442 L385.963875,717.714421 Z M560.040404,649 L484.389963,678.862016 L464.013512,814.087557 C481.237218,804.636419 500.579515,795.940567 522.040404,788 L600.040404,875 L643.040404,831 L560.040404,649 L560.040404,649 Z M340.305841,1044.04423 C339.986802,1040.97955 339.732886,1037.7344 339.544095,1034.30878 L214.613877,1015.48367 C231.725998,1086.67545 252.682946,1137.8622 269.040404,1145 C281.201178,1150.30652 292.237541,1153.70643 301.890075,1154.65927 C313.746944,1156.74079 326.130387,1157.52103 339.040404,1157 C364.406649,1155.97625 416.406649,1151.97625 495.040404,1145 L488.040404,1081 C444.567881,1078.68317 413.567881,1075.68317 395.040404,1072 C376.928564,1068.39945 358.68371,1059.08086 340.305841,1044.04423 L340.305841,1044.04423 Z M502.471444,1148.4404 C510.274278,1158.86831 527.852984,1170.52975 555.207562,1183.42471 C566.678908,1197.86106 577.114059,1211.45832 586.513015,1224.21648 L644.144364,1197.54013 L545.197688,1054.36348 L496.486632,1077.96926 L502.471444,1148.4404 Z M652.040404,834 L603.040404,885 L626.040404,934 L793.040404,885 L765.040404,828 C749.707071,832 733.040404,836 715.040404,840 C685.666841,832.806474 664.666841,830.806474 652.040404,834 Z M280.040404,362.745902 L280.040404,485 L345.68934,485 C345.68934,479.852459 349.44174,472.77698 354.699979,472.131148 C364.515775,470.925542 381.848129,479.979912 384.306361,472.131148 C388.081448,460.077866 384.306361,472.131148 401.040404,438.672131 C401.040404,413.79235 399.75317,383.765027 397.178702,348.590164 L345.68934,328 L280.040404,362.745902 Z M470.040404,276 L474.040404,299 L517.040404,306 L566.040404,283 L550.040404,253 L519.040404,242 L483.040404,246 L470.040404,276 Z"/>
  </g>
</svg>
