<svg xmlns="http://www.w3.org/2000/svg" width="2576" height="1466" viewBox="0 0 2576 1466">
  <g fill="#3DF8CD" fill-rule="evenodd" transform="translate(229 65)">
    <path d="M497.819803,436.697046 L374.082797,490.463717 C364.677235,514.87232 364.784017,549.135845 380.690792,590.320097 C387.082869,606.869831 394.628897,618.160732 401.040404,631 L562.040404,480 C575.846395,439.825653 583.846395,408.158987 586.040404,385 C588.234413,361.841013 583.234413,331.174347 571.040404,293 L519.040404,317 C521.961819,340.995903 521.961819,360.66257 519.040404,376 C516.331966,390.219298 509.258433,410.451647 497.819803,436.697046 L497.819803,436.697046 Z M46,198 L215,75 L508,0 L702,142 L939,596 L896,771 L850,1187 L541,1337 L239,1316 C199.666667,1254.66667 167.333333,1201.66667 142,1157 C116.666667,1112.33333 69.3333333,937 0,631 L46,198 Z M146.040404,293 C134.157216,356.575056 148.486164,452.716705 189.027247,581.424947 C208.934962,551.820246 237.756381,511.738063 265.048892,479.263323 L265.048882,479.263334 L238.040404,323 L359.040404,231 L345.040404,185 C310.344213,195.88139 280.01088,208.214724 254.040404,222 C228.069928,235.785276 192.069928,259.451943 146.040404,293 L146.040404,293 Z M271.270089,485.144897 C243.217418,519.267117 213.081876,562.515395 195.291339,600.933662 C195.410716,601.298674 195.530293,601.663934 195.650071,602.029444 C179.915116,664.482733 177.425057,741.469946 182.707721,817.409884 C210.814269,831.608398 255.016822,826.680042 303.040404,789 C341.500223,758.823834 365.534384,732.633332 380.288407,710.770525 L380.07276,710.855673 C384.812849,688.137362 389.936454,664.356259 395.443575,639.512363 C385.227021,623.256847 376.942039,607.269388 372.242429,594.011323 C360.690588,561.422443 356.470497,524.035205 362.22305,495.617065 L360.37455,496.420282 C316.503182,489.664346 286.801695,485.905884 271.270089,485.144897 Z M449.040404,176 L436.040404,146 L400.040404,142 L369.040404,153 L353.040404,183 L372.040404,225 L436.040404,197 L449.040404,176 Z M385.963875,717.714421 C365.765944,750.962122 335.531155,786.606346 312.040404,804 C271.830927,833.772983 217.52462,851.802286 186.674198,838.239448 C191.335907,895.753727 200.298089,952.158589 211.167678,1000.64014 L339.175652,1012.66437 C339.599812,983.763136 343.234534,945.964838 350.079817,899.269475 C391.266451,864.355771 422.586646,839.932613 444.040404,826 C446.149142,824.630532 448.297096,823.275044 450.484265,821.933537 L450.040404,818.333333 L462.323215,687.572575 L385.963873,717.71442 L385.963875,717.714421 Z M560.040404,649 L484.389963,678.862016 L464.013512,814.087557 C481.237218,804.636419 500.579515,795.940567 522.040404,788 L600.040404,875 L643.040404,831 L560.040404,649 L560.040404,649 Z M340.305841,1044.04423 C339.986802,1040.97955 339.732886,1037.7344 339.544095,1034.30878 L214.613877,1015.48367 C231.725998,1086.67545 252.682946,1137.8622 269.040404,1145 C281.201178,1150.30652 292.237541,1153.70643 301.890075,1154.65927 C313.746944,1156.74079 326.130387,1157.52103 339.040404,1157 C364.406649,1155.97625 416.406649,1151.97625 495.040404,1145 L488.040404,1081 C444.567881,1078.68317 413.567881,1075.68317 395.040404,1072 C376.928564,1068.39945 358.68371,1059.08086 340.305841,1044.04423 L340.305841,1044.04423 Z M502.471444,1148.4404 C510.274278,1158.86831 527.852984,1170.52975 555.207562,1183.42471 C566.678908,1197.86106 577.114059,1211.45832 586.513015,1224.21648 L644.144364,1197.54013 L545.197688,1054.36348 L496.486632,1077.96926 L502.471444,1148.4404 Z M652.040404,834 L603.040404,885 L626.040404,934 L793.040404,885 L765.040404,828 C749.707071,832 733.040404,836 715.040404,840 C685.666841,832.806474 664.666841,830.806474 652.040404,834 Z M280.040404,362.745902 L280.040404,485 L345.68934,485 C345.68934,479.852459 349.44174,472.77698 354.699979,472.131148 C364.515775,470.925542 381.848129,479.979912 384.306361,472.131148 C388.081448,460.077866 384.306361,472.131148 401.040404,438.672131 C401.040404,413.79235 399.75317,383.765027 397.178702,348.590164 L345.68934,328 L280.040404,362.745902 Z M470.040404,276 L474.040404,299 L517.040404,306 L566.040404,283 L550.040404,253 L519.040404,242 L483.040404,246 L470.040404,276 Z"/>
    <g fill-rule="nonzero" transform="translate(1020 597)">
      <path d="M173.233876 176.306586C168.040598 175.507425 153.659213 177.904908 147.267486 177.904908L129.690237 178.704069C114.509885 179.50323 102.92488 179.103649 95.3347047 177.505327 94.1362559 173.509522 93.33729 168.314976 94.1362559 162.720849L94.1362559 159.524205 94.9352217 156.327561C95.7341876 153.130917 95.3347047 150.733434 95.3347047 148.735531 95.3347047 137.946858 96.9326364 128.756506 99.7290169 121.564057L101.726432 120.764896 102.525397 119.965735C104.522812 119.566155 105.721261 119.166574 106.91971 119.166574L127.692822 117.967833C135.682481 117.568252 142.873173 118.766994 149.2649 118.766994 165.643701 118.766994 179.625603 116.769091 192.009574 119.965735 196.803369 120.764896 202.795613 121.164477 209.586823 121.564057L217.576482 121.963638 222.76976 121.963638C233.156316 121.963638 231.957867 126.359023 231.957867 135.948955 231.957867 162.720849 227.164072 211.86925 215.179584 231.448694 190.411642 271.806324 148.066452 284.5929 101.326949 278.599193 80.1543533 275.802129 62.5771043 268.609681 51.7910652 257.821007 3.05414761 210.670508-12.5256867 144.340146 13.4407038 79.6081052 16.2370843 71.6164953 21.0308795 64.4240463 28.2215723 57.2315974 57.3838262 28.062221 92.1388412 14.8760646 133.685066 16.0748061 148.465934 16.4743866 167.241632 22.4680941 190.012159 35.6542505 194.406472 38.451314 196.004403 42.0475385 193.607506 47.6416654L186.416813 64.0244658C183.620432 70.4177538 180.424569 76.4114612 178.027671 80.8068467 174.032842 89.1980372 169.239047 90.3967786 160.050939 87.2001347L152.460764 83.2043297 144.471105 79.6081052C120.901612 68.4198513 93.7367729 78.0097832 72.9636605 95.1917446 66.5719336 100.386291 63.3760702 107.17916 62.5771043 115.96993L61.7781385 131.55357C61.3786555 136.748116 60.9791726 141.942663 60.9791726 146.737629 61.3786555 158.325463 62.1776214 167.915395 65.3734848 177.105747 66.5719336 180.701971 67.7703824 184.298196 70.16728 187.49484 70.5667629 188.693581 71.3657288 189.892323 72.5641776 191.091064L74.9610752 193.888127C76.9584898 196.685191 78.1569386 198.683093 78.9559045 200.281415 88.9429778 225.055406 157.254559 221.858762 169.63853 187.89442 172.035427 183.499035 173.233876 179.50323 173.233876 176.306586zM269.729374 165.109621C258.935285 91.5277255 299.313175 20.7451417 372.872896 2.34966791 377.670269 1.1499631 382.867424.750061498 388.86414 1.1499631 436.038309 4.34917593 476.016418 24.7441577 494.006567 69.9330389 502.40197 91.1278239 506 109.923199 506 127.118968L506 144.314737C506 151.512966 506 157.111588 505.600219 161.110604 504.400876 172.707751 502.40197 183.105193 499.203721 192.702831 482.013134 244.69004 438.436995 279.881381 387.265016 290.678724 354.882747 297.477051 310.906827 277.082069 296.514708 251.488367 279.324121 221.095845 270.129155 191.903028 269.729374 165.109621zM331.065308 169.776558C331.065308 175.369539 332.669812 182.560514 333.87319 190.949986 334.274316 194.145975 335.076568 197.741463 336.279946 201.736449L339.488954 212.922411C342.296836 222.510379 348.714852 227.703861 359.144128 229.701354 395.646595 236.492831 439.36933 216.917398 446.188472 164.583075 448.194102 149.002628 446.589598 129.027696 440.171582 104.658279 434.154692 81.4873578 412.895013 49.926965 375.590295 63.1104202 360.748632 68.3039026 350.720482 77.89187 343.500214 92.6733198 331.86756 116.643238 327.8563 142.61065 331.065308 169.776558zM205.502227 361.069223C199.504656 369.462567 195.106437 373.85908 188.30919 380.254009 181.511943 386.648937 170.716315 403.835307 166.717934 399.039111L157.921497 392.644183 149.125059 385.849571C143.127488 381.453058 135.530565 379.454643 125.934451 379.854326 69.9571221 382.252424 61.5605227 440.206463 62.7600369 472.181106 63.559713 493.763989 73.1558266 508.552261 94.7470822 512.149409L97.1461106 512.549092 99.944977 513.348458C101.944167 514.147824 103.943358 514.147824 105.142872 514.147824 125.534613 520.542752 145.126679 515.346873 163.119392 498.560186L165.51842 496.162087C166.318096 494.963038 166.717934 494.163672 167.51761 493.763989 171.515991 490.566525 175.514372 490.566525 179.112914 493.763989 189.108866 502.557016 197.905303 511.350043 205.902065 519.343703 212.699312 525.738632 212.699312 532.13356 205.902065 538.928172 189.508704 555.315176 168.317286 566.506301 141.528136 573.700595 137.929593 574.899645 133.531375 575.699011 128.733318 576.89806L115.538662 578.496792C64.3593891 584.092354 6.3828695 542.525319.785136567 478.576034-4.01292023 426.217557 13.1801166 382.252424 52.3642471 347.48L55.9627897 344.282536C57.9619801 342.683804 59.1614943 341.085072 59.9611704 340.285706 81.552426 318.702822 111.540281 311.90821 147.925545 318.303139L150.724411 318.702822C151.923926 319.102505 153.523278 319.502188 153.923116 319.901871 165.118582 324.698067 175.114534 330.693313 183.910971 337.487924 192.707408 343.882853 210.300283 356.67271 205.502227 361.069223zM269.29473 587.882764C261.716438 588.282697 256.930149 587.882764 253.73929 583.08357 252.14386 580.683972 251.745002 578.684308 252.14386 576.284711 253.73929 564.286726 254.935862 549.089277 254.935862 532.292097L254.935862 509.895858 255.334719 487.899551C255.733577 467.103043 255.334719 441.907273 255.334719 412.712175L255.334719 375.51842 254.935862 337.924732C254.935862 333.925403 254.935862 329.126209 254.138147 323.127216L253.340432 308.729634C253.340432 303.130574 309.978188 302.730641 309.978188 306.330037L313.966763 347.923053C315.562192 364.720233 317.55648 378.31795 317.55648 389.916003 317.55648 393.115465 317.157622 397.114794 316.758765 402.313921L316.359907 408.312914C316.359907 410.312578 315.96105 412.712175 315.96105 414.311906 315.96105 438.70781 314.764477 469.102707 314.36562 506.296462 313.966763 508.296126 314.764477 511.095656 314.764477 514.695052L314.764477 523.093642C314.764477 526.693038 334.308492 525.093306 346.274215 523.893508L354.251364 523.093642 362.228513 522.693709C368.610232 521.893843 373.396521 521.893843 377.385095 521.49391 385.362244 520.694045 395.33368 519.894179 406.900546 519.494246L438.011426 517.894515C440.803428 517.894515 441.601143 531.092299 441.601143 539.090956 442 541.490553 442 545.089949 442 549.089277L441.601143 554.288404 441.601143 559.487531C441.601143 563.48686 440.803428 566.686323 439.207998 568.685987 437.612568 570.285718 434.820566 571.485517 430.831992 572.285383L415.276552 575.484845 399.322254 578.284375C375.390808 582.683637 357.442223 584.683301 318.753052 585.883099L293.625033 586.682965 269.29473 587.882764zM519.673937 316.463369C522.843441 318.460497 524.032005 321.655901 524.824381 324.052455 524.824381 325.650157 525.220569 327.24786 525.616757 328.446137L526.012945 332.040967 527.201509 350.414545 527.993884 368.788123C529.182448 383.167445 529.578636 394.750788 530.7672 405.135853 533.936704 433.894497 532.74814 470.641653 532.74814 514.977895 532.74814 520.170428 533.540516 526.161812 533.540516 533.750899L533.540516 553.322754 533.936704 559.713563C533.936704 564.906096 535.125268 573.294034 527.201509 574.891736 507.788299 578.486567 492.336969 578.885992 480.055142 576.489439L479.658954 572.495183 478.866578 569.299778C478.074202 565.704947 478.074202 563.707819 477.678014 561.311266 471.339007 516.975023 469.358067 483.423272 471.735195 460.256587 472.527571 453.466352 472.131383 443.880137 471.735195 433.894497L470.942819 419.914601 470.150443 406.733556 469.754255 402.7393 469.754255 392.753659C469.754255 374.779507 465.396188 353.210524 465.396188 328.845562 465 328.046711 465 326.848434 465 325.650157L465.396188 323.653029 465.396188 322.854178C484.41321 315.265092 502.241668 313.267964 519.673937 316.463369zM855 579.697562C853.406426 582.098923 847.430525 582.098923 841.454623 582.098923L834.681935 582.098923 827.909246 582.899376C817.551017 584.100057 800.021706 584.90051 800.021706 582.098923L798.428132 577.696428 797.631345 573.293934C796.834558 569.691893 795.639378 566.890305 795.240984 564.488945 790.858657 532.470803 788.866689 506.456062 786.476329 484.443589 785.679542 476.839281 785.281149 467.233838 784.484362 455.627262L783.289181 441.219098 782.492394 426.410707C782.492394 425.610253 782.094001 424.409573 781.695608 422.808666L780.898821 419.606852 779.305247 420.007079 778.110067 420.007079C777.31328 420.407305 776.516493 420.807532 776.118099 420.807532L763.369509 443.620458 756.995214 454.826808 754.20646 460.83021 750.222526 466.833611C741.856264 468.834745 729.107674 469.635199 711.578363 468.834745 703.2121 468.834745 698.032986 464.832477 694.845838 457.228169 689.666724 444.020685 680.503675 430.012748 666.161511 416.405038 662.177576 426.410707 662.57597 426.410707 663.372757 441.619324 663.77115 448.823406 663.77115 456.827942 663.372757 465.632931 663.372757 468.834745 663.372757 473.23724 662.57597 478.440188L661.779183 484.843816 661.779183 492.047898C661.779183 501.253114 660.584003 509.25765 660.584003 515.661278L660.584003 528.868762C660.584003 540.475338 660.584003 544.477606 659.787216 553.682822 659.388822 562.087584 660.185609 566.890305 659.388822 566.890305 658.193642 567.690759 651.420954 566.890305 645.843446 567.290532L639.070757 567.690759 631.899675 567.690759C621.143052 567.690759 605.605708 564.088718 605.605708 560.08645L605.207315 556.884636 604.808922 553.282595 604.012135 546.878967 604.808922 532.070576 605.207315 517.262185 606.402495 488.445857C607.597676 467.233838 608.792856 436.01615 606.004102 395.993472 605.207315 383.986669 604.410528 368.778051 600.0282 350.36762L598.83302 345.965125C597.239446 337.160136 594.052299 333.157868 597.63784 331.556961L600.426594 330.356281 602.816954 328.755374C606.800889 326.75424 609.589643 325.553559 613.971971 324.753106L616.760725 323.552426 619.151085 323.152199C623.533413 322.351745 627.517347 321.551292 631.102888 320.350611 643.453085 318.749704 654.608101 323.552426 663.372757 332.757641 670.942232 341.162404 680.902068 351.5683 691.260297 363.174876L705.204068 377.983267 719.546231 392.791658 723.928559 395.993472C725.920526 394.392565 727.5141 391.991204 729.107674 389.189617L730.701248 385.587576C731.498035 383.986669 732.294821 382.385762 733.091608 381.585308 737.473936 375.581906 739.465903 370.378958 741.856264 365.576237 743.449838 363.97533 744.645018 361.173742 745.441805 356.771248L747.433772 351.968527 749.824133 347.165805C750.62092 345.164671 751.417706 342.363084 753.409674 338.761043L756.995214 330.756507 760.979149 323.152199 762.572723 318.749704 764.56469 315.54789C764.56469 312.746303 819.542984 313.946983 819.542984 317.549024 835.877115 365.17601 841.05623 414.403904 843.44659 456.827942L845.040164 483.643136 846.633738 511.258783C847.032131 518.863092 849.024098 528.868762 850.219279 540.875565L851.812853 556.484409 854.601607 570.892573C855 572.093253 855 573.293934 855 574.494614L855 579.697562zM1060.89663 432.063609L1063.29465 434.468935C1064.89334 436.072485 1066.09235 436.87426 1066.49202 437.275148 1089.67293 454.513314 1116.05121 497.408284 1084.47721 537.497041 1063.69432 563.554734 1034.11868 575.581361 996.549614 580.792899L978.964094 582.39645C972.169689 583.198225 966.174626 583.599112 961.778246 583.599112L952.186145 584C948.589107 584 945.391739 584 942.594043 583.599112 935.399967 583.599112 929.005233 582.39645 923.809511 580.392012L923.01017 569.568047 921.411486 558.343195 918.214119 497.408284 915.816094 436.072485 915.816094 428.856509C915.416423 426.451183 915.016752 424.045858 915.016752 421.640533L913.018397 410.014793 911.020043 397.988166C909.82103 388.767751 909.82103 380.75 909.82103 373.934911 909.82103 369.12426 908.622017 363.110947 907.822676 355.093195L906.623663 345.872781 905.42465 336.251479C904.625309 328.233728 903.426296 313.400888 917.814448 313.400888 923.01017 313.400888 930.204246 313.801775 940.196018 313.400888L950.987132 313 962.177917 313C997.348955 313 1030.52164 314.60355 1055.70091 345.071006 1080.88017 375.538462 1077.28313 404.803254 1060.89663 432.063609zM964.29812 362.973807L961.89385 377.315331C961.493138 382.494215 961.092427 387.274723 961.092427 390.461728 960.691715 400.022744 961.493138 408.787009 965.500255 416.754523 977.922317 417.94965 989.142244 414.762644 1001.16359 407.591882 1013.98637 399.624369 1016.39064 383.689342 1008.3764 371.339696 1006.37285 368.949442 1003.16715 366.559188 999.961459 365.364061 988.34082 362.177056 976.31947 360.981929 964.29812 362.973807zM970.668792 528C981.853462 527.19837 995.834299 523.991851 1013.01076 515.574737 1017.80419 513.169847 1022.59762 510.764958 1026.99159 508.360068 1043.36915 499.542139 1039.37462 469.080204 1017.00528 465.072054 998.630467 461.865535 982.652367 462.26635 969.869887 467.076129 967.07372 481.104652 967.473172 512.769032 970.668792 528z"/>
    </g>
  </g>
</svg>
